<svg xmlns="http://www.w3.org/2000/svg" id="linkedin" viewBox="0 0 12 12">
    <defs>
        <style>
            .cls-1{fill:#56728a}
        </style>
    </defs>
    <g id="post-linkedin">
        <path id="Path_119" d="M10.8 0H1.2A1.2 1.2 0 0 0 0 1.2v9.6A1.2 1.2 0 0 0 1.2 12h9.6a1.2 1.2 0 0 0 1.2-1.2V1.2A1.2 1.2 0 0 0 10.8 0zM3.6 10.2H1.8V4.8h1.8zm-.9-6.42A1.08 1.08 0 1 1 3.78 2.7 1.076 1.076 0 0 1 2.7 3.78zm7.5 6.42H8.4V7.02a.9.9 0 0 0-1.8 0v3.18H4.8V4.8h1.8v.72a1.938 1.938 0 0 1 1.5-.84 2.126 2.126 0 0 1 2.1 2.1z" class="cls-1" data-name="Path 119"/>
    </g>
</svg>
